# AST/ASF file generated using VICON BodyLanguage
# -----------------------------------------------
:version 1.10
:name VICON
:units
  mass 1.0
  length 0.45
  angle deg
:documentation
   .ast/.asf automatically generated from VICON data using
   VICON BodyBuilder and BodyLanguage model FoxedUp or BRILLIANT.MOD
:root
   order TX TY TZ RX RY RZ
   axis XYZ
   position 0 0 0  
   orientation 0 -0 0 
:bonedata
  begin
     id 1 
     name lhipjoint
     direction 0.515797 -0.759363 0.396637 
     length 2.47888 
     axis 0 -0 0  XYZ
  end
  begin
     id 2 
     name lfemur
     direction 0.34202 -0.939693 0  
     length 6.81885  
     axis 0 -0 20  XYZ
    dof rx ry rz
    limits (-160.0 20.0)
           (-70.0 70.0)
           (-60.0 70.0)
  end
  begin
     id 3 
     name ltibia
     direction 0.342037 -0.939687 0   
     length 7.89258   
     axis 0 -0 20   XYZ
    dof rx
    limits (-10.0 170.0)
  end
  begin
     id 4 
     name lfoot
     direction 0.173497 -0.476678 0.861787   
     length 2.51543   
     axis -90 -1.13533e-015 20   XYZ
    dof rx rz
    limits (-45.0 90.0)
           (-70.0 20.0)
  end
  begin
     id 5 
     name ltoes
     direction 1.53564e-011 -4.21897e-011 1   
     length 1.21388   
     axis -90 -1.13533e-015 20   XYZ
    dof rx
    limits (-90.0 20.0)
  end
  begin
     id 6 
     name rhipjoint
     direction -0.489454 -0.772941 0.403729   
     length 2.43534  
     axis 0 -0 0  XYZ 
  end
  begin
     id 7 
     name rfemur
     direction -0.34202 -0.939693 0   
     length 7.10357   
     axis 0 -0 -20   XYZ
    dof rx ry rz
    limits (-160.0 20.0)
           (-70.0 70.0)
           (-70.0 60.0)
  end
  begin
     id 8 
     name rtibia
     direction -0.34202 -0.939693 0   
     length 9.16127   
     axis 0 -0 -20   XYZ
    dof rx
    limits (-10.0 170.0)
 end
 begin
     id 9 
     name rfoot
     direction -0.270974 -0.748671 0.605033   
     length 1.74894  
     axis -90 1.13533e-015 -20   XYZ
    dof rx rz
    limits (-45.0 90.0)
           (-20.0 70.0)
  end
  begin
     id 10 
     name rtoes
     direction -1.53557e-011 -4.21759e-011 1   
     length 0.787585   
     axis -90 1.13533e-015 -20   XYZ
    dof rx
    limits (-90.0 20.0)
  end
  begin
     id 11 
     name lowerback
     direction -0.0140249 0.999561 0.0260968   
     length 2.16963   
     axis 0 -0 0   XYZ
    dof rx ry rz
    limits (-20.0 45.0)
           (-30.0 30.0)
           (-30.0 30.0)
  end
  begin
     id 12 
     name upperback
     direction 0.00860018 0.999959 -0.002711   
     length 2.1726   
     axis 0 -0 0   XYZ
    dof rx ry rz
    limits (-20.0 45.0)
           (-30.0 30.0)
           (-30.0 30.0)
  end
  begin
     id 13 
     name thorax
     direction 0.015211 0.999782 -0.0143191   
     length 2.17061   
     axis 0 -0 0   XYZ
    dof rx ry rz
    limits (-20.0 45.0)
           (-30.0 30.0)
           (-30.0 30.0)
  end
  begin
     id 14 
     name lowerneck
     direction -0.0140143 0.999447 0.030145   
     length 2.26749   
     axis 0 -0 0   XYZ
    dof rx ry rz
    limits (-20.0 45.0)
           (-30.0 30.0)
           (-30.0 30.0)
  end
  begin
     id 15 
     name upperneck
     direction 0.118062 0.961438 -0.248392   
     length 2.22728   
     axis 0 -0 0   XYZ
    dof rx ry rz
    limits (-20.0 45.0)
           (-30.0 30.0)
           (-30.0 30.0)
  end
  begin
     id 16
     name head
     direction 0.0431885 0.9954 -0.085514  
     length 2.28786  
     axis 0 -0 0   XYZ
    dof rx ry rz
    limits (-20.0 45.0)
           (-30.0 30.0)
           (-30.0 30.0)
  end
  begin
     id 17 
     name lclavicle
     direction 0.912126 0.409548 0.0172323  
     length 4.31571  
     axis 0 -0 0   XYZ
    dof ry rz
    limits (-20.0 10.0)
           (0.0 20.0)
  end
  begin
     id 18 
     name lhumerus
     direction 1 -4.48977e-011 1.93091e-027   
     length 5.13658   
     axis 180 -30 -90   XYZ
    dof rx ry rz
    limits (-60.0 90.0)
           (-90.0 90.0)
           (-90.0 90.0)
  end
  begin
     id 19
     name lradius
     direction 1 -4.48916e-011 6.84018e-027   
     length 3.22473   
     axis 180 -30 -90   XYZ
    dof rx
    limits (-10.0 170.0)
  end
  begin
     id 20
     name lwrist
     direction 1 -4.48987e-011 7.01981e-027   
     length 1.61236   
     axis -4.37994e-015 90 90   XYZ
    dof ry
    limits (-180.0 0.0)
 end
  begin
     id 21 
     name lhand
     direction 1 -4.49037e-011 1.40335e-026   
     length 0.936406   
     axis -8.96029e-015 90 90   XYZ
    dof rx rz
    limits (-90.0 90.0)
           (-45.0 45.0)
  end
  begin
     id 22 
     name lfingers
     direction 1 -4.48886e-011 2.8104e-026   
     length 0.754955   
     axis -1.79203e-014 90 90   XYZ
    dof rx
    limits (0.0 90.0)
  end
  begin
     id 23
     name lthumb
     direction 0.707107 -6.34937e-011 0.707107   
     length 1.08397   
     axis -90 45 -4.48555e-014   XYZ
    dof rx rz
    limits (-45.0 45.0)
           (-45.0 45.0)
  end
  begin
     id 24 
     name rclavicle
     direction -0.947962 0.317997 0.0156638   
     length 4.86918  
     axis 0 -0 0   XYZ 
    dof ry rz
    limits (-10.0 20.0)
           (-20.0 0.0)
  end
  begin
     id 25 
     name rhumerus
     direction -1 -4.48951e-011 2.80534e-018  
     length 5.60911   
     axis 180 30 90   XYZ
    dof rx ry rz
    limits (-90.0 60.0)
           (-90.0 90.0)
           (-90.0 90.0)
  end
  begin
     id 26 
     name rradius
     direction -1 -4.4898e-011 2.11315e-027   
     length 3.38704   
     axis 180 30 90   XYZ
    dof rx
    limits (-10.0 170.0)
  end
  begin
     id 27 
     name rwrist
     direction -1 -4.48933e-011 7.02314e-027   
     length 1.69352   
     axis -4.37994e-015 -90 -90   XYZ
    dof ry
    limits (-180.0 0.0)
  end
  begin
     id 28
     name rhand
     direction -1 -4.48937e-011 1.40458e-026   
     length 0.755878   
     axis -8.96029e-015 -90 -90   XYZ
    dof rx rz
    limits (-90.0 90.0)
           (-45.0 45.0)
  end
  begin
     id 29
     name rfingers
     direction -1 -4.4901e-011 2.80737e-026   
     length 0.609409   
     axis -1.79203e-014 -90 -90   XYZ
    dof rx
    limits (0.0 90.0)
  end
  begin
     id 30
     name rthumb
     direction -0.707107 -6.34968e-011 0.707107   
     length 0.874992   
     axis -90 -45 4.48555e-014   XYZ
    dof rx rz
    limits (-45.0 45.0)
           (-45.0 45.0)
  end
:hierarchy
  begin
    root lhipjoint rhipjoint lowerback
    lhipjoint lfemur
    lfemur ltibia
    ltibia lfoot
    lfoot ltoes
    rhipjoint rfemur
    rfemur rtibia
    rtibia rfoot
    rfoot rtoes
    lowerback upperback
    upperback thorax
    thorax lowerneck lclavicle rclavicle
    lowerneck upperneck
    upperneck head
    lclavicle lhumerus
    lhumerus lradius
    lradius lwrist
    lwrist lhand lthumb
    lhand lfingers
    rclavicle rhumerus
    rhumerus rradius
    rradius rwrist
    rwrist rhand rthumb
    rhand rfingers
  end

#!OML:ASF C:\ViconDB\ViconDB\414\Spring2016\041811\Spring2016.ASF
:FULLY-SPECIFIED
:DEGREES
31
root 6.87324 16.6994 27.4713 -166.862 -3.0321 177.989
lowerback 6.57354 0.0358801 -1.95039
upperback 1.41629 -0.133034 1.57653
thorax -2.21726 -0.0899901 2.73488
lowerneck -13.0509 -3.45627 -14.7239
upperneck 13.2102 -4.94272 17.0768
head 6.96607 -1.94016 7.63965
rclavicle 4.17448e-015 1.43125e-014
rhumerus -65.4655 -3.43225 -88.9935
rradius 71.5715
rwrist 10.187
rhand -37.9839 -16.5608
rfingers 7.12502
rthumb -11.0237 -46.2513
lclavicle 4.17448e-015 1.43125e-014
lhumerus -46.6927 -22.741 100.107
lradius 86.362
lwrist -14.8693
lhand -32.6279 10.7385
lfingers 7.12502
lthumb -5.85498 40.6376
rfemur -30.7865 -8.45615 22.005
rtibia 67.8982
rfoot -164.067 18.577
rtoes -5.81652
lfemur -7.70413 -5.88294 -15.8902
ltibia 55.0067
lfoot 5.51212 -4.25228
ltoes -12.0211
32
root 6.87851 16.6939 27.3126 -167.095 -2.83686 178.428
lowerback 6.82924 0.258183 -1.4726
upperback 1.69963 0.170503 1.81886
thorax -2.08586 0.0430489 2.69094
lowerneck -12.9728 -3.59869 -14.8774
upperneck 12.5673 -5.11217 17.5056
head 6.79815 -2.00432 7.78199
rclavicle -8.54774e-015 -3.73715e-014
rhumerus -63.8528 -3.82634 -88.6824
rradius 72.5605
rwrist 9.75887
rhand -38.4926 -17.135
rfingers 7.12502
rthumb -11.5144 -46.7987
lclavicle -8.54774e-015 -3.73715e-014
lhumerus -47.3746 -22.4566 100.411
lradius 84.0362
lwrist -14.0593
lhand -32.5944 10.8586
lfingers 7.12502
lthumb -5.82262 40.7586
rfemur -29.618 -8.27883 22.3192
rtibia 67.3073
rfoot -163.426 18.8432
rtoes -6.01264
lfemur -10.0202 -5.33251 -15.4143
ltibia 58.8773
lfoot 8.88841 -3.48434
ltoes -6.39028
33
root 6.88266 16.7017 27.1501 -167.265 -2.72544 178.597
lowerback 7.13198 0.477637 -1.24834
upperback 1.9631 0.451837 2.00946
thorax -1.99873 0.167455 2.73751
lowerneck -12.9583 -3.76111 -14.8335
upperneck 11.9635 -5.27936 17.6221
head 6.64117 -2.07389 7.77927
rclavicle 1.98785e-015 -7.95139e-015
rhumerus -61.9888 -4.27959 -88.2642
rradius 73.5275
rwrist 9.78654
rhand -38.8177 -17.2551
rfingers 7.12502
rthumb -11.8279 -46.9011
lclavicle 1.98785e-015 -7.95139e-015
lhumerus -47.8712 -21.7593 100.372
lradius 81.4151
lwrist -15.6891
lhand -31.7878 12.8895
lfingers 7.12502
lthumb -5.0438 42.8095
rfemur -28.5143 -8.24613 22.3026
rtibia 66.684
rfoot -163.005 19.0298
rtoes -6.27504
lfemur -12.5305 -5.06845 -15.2787
ltibia 62.8033
lfoot 11.3297 -2.43477
ltoes -1.52562
34
root 6.88997 16.6961 26.9831 -167.594 -2.51533 179.09
lowerback 7.47915 0.754498 -0.781065
upperback 2.26355 0.817802 2.29706
thorax -1.90007 0.328439 2.73852
lowerneck -12.8198 -3.91062 -14.9396
upperneck 11.2987 -5.42717 17.8476
head 6.44814 -2.14234 7.84339
rclavicle -2.38542e-015 1.66979e-014
rhumerus -60.0227 -4.63921 -87.8374
rradius 74.7425
rwrist 9.23633
rhand -38.5542 -16.4779
rfingers 7.12502
rthumb -11.5738 -46.1383
lclavicle -2.38542e-015 1.66979e-014
lhumerus -48.5526 -21.0688 100.29
lradius 78.5679
lwrist -17.1777
lhand -31.1808 13.2198
lfingers 7.12502
lthumb -4.45771 43.1529
rfemur -27.0561 -8.02814 22.6628
rtibia 65.9091
rfoot -162.777 19.1923
rtoes -6.04211
lfemur -14.9591 -4.33283 -14.7252
ltibia 66.778
lfoot 11.265 -2.79151
ltoes -0.248929
35
root 6.89898 16.6941 26.8174 -167.707 -2.36342 179.483
lowerback 7.75809 0.985295 -0.390366
upperback 2.44547 1.12793 2.49237
thorax -1.87983 0.468368 2.6906
lowerneck -12.4701 -4.00452 -15.0382
upperneck 10.4016 -5.54551 18.3
head 6.15041 -2.20148 7.98461
rclavicle 9.93923e-015 3.18055e-015
rhumerus -58.0167 -4.80791 -87.6016
rradius 76.0676
rwrist 9.09566
rhand -38.4782 -15.3368
rfingers 7.12502
rthumb -11.5004 -45.0014
lclavicle 9.93923e-015 3.18055e-015
lhumerus -49.5362 -20.7904 100.251
lradius 75.6975
lwrist -17.0489
lhand -31.5499 13.1736
lfingers 7.12502
lthumb -4.81416 43.0989
rfemur -25.8337 -7.878 22.9721
rtibia 65.0792
rfoot -162.557 19.3319
rtoes -6.15082
lfemur -17.7137 -3.58028 -14.2271
ltibia 70.706
lfoot 9.51182 -3.59704
ltoes -3.00756
36
root 6.90977 16.6973 26.6482 -167.945 -2.09524 179.621
lowerback 8.20755 1.25492 -0.363496
upperback 2.66132 1.46036 2.66157
thorax -1.92614 0.618564 2.81522
lowerneck -12.2354 -4.10833 -15.0467
upperneck 9.63327 -5.64927 18.5211
head 5.90234 -2.25732 8.03398
rclavicle 2.46493e-014 1.82882e-014
rhumerus -55.8025 -4.86614 -87.3423
rradius 77.2287
rwrist 9.9278
rhand -39.0284 -15.5715
rfingers 7.12502
rthumb -12.031 -45.2057
lclavicle 2.46493e-014 1.82882e-014
lhumerus -50.8599 -20.7762 100.656
lradius 73.0202
lwrist -15.4398
lhand -32.8458 13.3797
lfingers 7.12502
lthumb -6.06536 43.2729
rfemur -24.3192 -7.73428 22.9584
rtibia 64.0542
rfoot -162.411 19.528
rtoes -6.07296
lfemur -20.4747 -2.68144 -14.0899
ltibia 74.4727
lfoot 7.48607 -4.6779
ltoes -3.82987
